<?xml version="1.0" encoding="UTF-8"?>
<!DOCTYPE svg PUBLIC "-//W3C//DTD SVG 1.1//EN" "http://www.w3.org/Graphics/SVG/1.1/DTD/svg11.dtd">
<svg xmlns="http://www.w3.org/2000/svg" version="1.1" width="754px" height="776px" style="shape-rendering:geometricPrecision; text-rendering:geometricPrecision; image-rendering:optimizeQuality; fill-rule:evenodd; clip-rule:evenodd" xmlns:xlink="http://www.w3.org/1999/xlink">
<g><path style="opacity:1" fill="#383336" d="M 142.5,-0.5 C 143.5,-0.5 144.5,-0.5 145.5,-0.5C 152.841,6.84055 160.508,13.8405 168.5,20.5C 168.5,21.5 168.5,22.5 168.5,23.5C 160.265,17.4415 152.431,10.7748 145,3.5C 143.241,23.8063 143.075,44.1397 144.5,64.5C 145.167,69.1667 145.833,73.8333 146.5,78.5C 148.421,118.899 152.588,159.233 159,199.5C 160.283,207.58 161.949,215.58 164,223.5C 177.136,212.038 190.969,201.705 205.5,192.5C 205.842,193.338 206.508,193.672 207.5,193.5C 207.586,194.496 207.252,195.329 206.5,196C 194.312,203.259 182.646,211.259 171.5,220C 163.993,227.534 157.326,235.701 151.5,244.5C 150.432,242.813 150.599,241.146 152,239.5C 155.079,235.676 157.912,231.676 160.5,227.5C 157.508,225.829 154.841,223.829 152.5,221.5C 153.167,221.167 153.833,220.833 154.5,220.5C 156.426,221.242 158.259,222.242 160,223.5C 148.854,159.538 142.354,95.0383 140.5,30C 140.415,19.7559 141.082,9.58926 142.5,-0.5 Z"/></g>
<g><path style="opacity:1" fill="#866e8c" d="M 168.5,23.5 C 212.094,62.9831 255.76,102.483 299.5,142C 305.304,147.227 311.97,148.727 319.5,146.5C 319.719,145.325 319.386,144.325 318.5,143.5C 313.34,144.929 308.507,144.263 304,141.5C 304.176,126.751 305.509,112.085 308,97.5C 315.388,107.894 323.888,117.394 333.5,126C 337.726,129.28 342.393,131.78 347.5,133.5C 348.442,133.392 349.275,133.059 350,132.5C 353,121.833 356,111.167 359,100.5C 363.876,111.251 369.543,121.584 376,131.5C 377.745,132.956 379.578,134.289 381.5,135.5C 402.255,128.806 422.589,121.139 442.5,112.5C 442.755,114.343 442.922,116.343 443,118.5C 443.5,119 444,119.5 444.5,120C 448.572,120.658 452.572,120.325 456.5,119C 472.962,113.181 488.795,106.015 504,97.5C 497.009,111.812 489.675,126.146 482,140.5C 478.802,147.595 476.302,154.929 474.5,162.5C 474.738,169.879 478.571,173.213 486,172.5C 499.092,170.247 511.758,166.58 524,161.5C 519.167,171.476 513.5,181.143 507,190.5C 503.943,191.451 500.777,191.784 497.5,191.5C 497.5,192.5 497.5,193.5 497.5,194.5C 513.024,194.647 528.358,193.981 543.5,192.5C 603.861,192.028 664.194,193.028 724.5,195.5C 729.985,196.327 735.652,196.827 741.5,197C 720.628,215.376 699.628,233.543 678.5,251.5C 687.228,237.054 696.228,222.721 705.5,208.5C 629.919,210.825 554.585,216.825 479.5,226.5C 478.833,226.167 478.167,225.833 477.5,225.5C 484.474,211.91 490.474,197.91 495.5,183.5C 494.167,183.167 492.833,182.833 491.5,182.5C 475.576,185.266 459.576,185.933 443.5,184.5C 449.457,169.302 453.79,153.968 456.5,138.5C 448.453,143.44 439.953,147.44 431,150.5C 430.5,150.333 430,150.167 429.5,150C 431.145,146.902 432.312,143.735 433,140.5C 415.788,145.404 398.955,151.404 382.5,158.5C 378.813,155.647 375.647,152.314 373,148.5C 369,142.5 365,136.5 361,130.5C 356.694,136.972 352.194,143.306 347.5,149.5C 341.969,143.965 335.635,139.631 328.5,136.5C 323.025,149.453 316.525,161.786 309,173.5C 293.034,163.543 278.201,152.043 264.5,139C 228.833,104.667 193.167,70.3333 157.5,36C 156.004,35.4926 154.837,35.9926 154,37.5C 153,39.5 152,41.5 151,43.5C 148.966,50.665 146.799,57.665 144.5,64.5C 143.075,44.1397 143.241,23.8063 145,3.5C 152.431,10.7748 160.265,17.4415 168.5,23.5 Z"/></g>
<g><path style="opacity:1" fill="#492c4d" d="M 678.5,251.5 C 676.343,253.412 674.009,255.079 671.5,256.5C 669.433,256.534 667.266,256.534 665,256.5C 653.535,260.398 641.368,264.231 628.5,268C 608.566,277.052 588.566,287.052 568.5,298C 564.32,300.696 560.32,303.53 556.5,306.5C 555.307,306.97 554.64,307.97 554.5,309.5C 557.761,327.396 560.261,345.396 562,363.5C 562.721,378.543 562.221,393.543 560.5,408.5C 562.052,410.959 564.385,412.459 567.5,413C 598.653,415.739 629.32,413.073 659.5,405C 683.49,405.277 707.49,405.444 731.5,405.5C 737.093,406.642 742.426,408.475 747.5,411C 737.167,418 726.833,425 716.5,432C 718.668,440.68 720.001,449.513 720.5,458.5C 715.399,457.857 710.399,456.691 705.5,455C 699.899,451.744 694.066,448.911 688,446.5C 682.017,451.154 675.85,455.488 669.5,459.5C 643.867,470.199 617.367,477.866 590,482.5C 588.602,481.949 587.268,481.616 586,481.5C 580,482.167 574,482.833 568,483.5C 560.44,483.488 552.94,483.488 545.5,483.5C 544.603,482.402 543.77,482.402 543,483.5C 537.678,513.636 527.512,541.969 512.5,568.5C 499.987,575.884 487.987,583.384 476.5,591C 474.975,592.009 473.308,592.509 471.5,592.5C 467.873,589.347 463.873,586.681 459.5,584.5C 459.167,585 458.833,585.5 458.5,586C 472.853,596.022 484.02,608.856 492,624.5C 495.68,637.343 496.347,650.343 494,663.5C 491.371,683.694 485.205,702.694 475.5,720.5C 470.471,723.344 465.305,726.011 460,728.5C 459.324,723.129 459.491,717.796 460.5,712.5C 454.499,713.222 448.999,715.222 444,718.5C 441.424,711.686 438.59,705.019 435.5,698.5C 434.448,698.351 433.448,698.517 432.5,699C 427.245,704.523 421.745,709.69 416,714.5C 411.055,710.098 406.222,705.598 401.5,701C 400.391,700.362 399.225,699.862 398,699.5C 394.301,703.535 390.967,707.868 388,712.5C 381.946,703.058 376.946,693.058 373,682.5C 366.12,664.188 359.453,645.854 353,627.5C 313.407,629.513 272.907,623.679 231.5,610C 168.469,583.798 119.135,541.631 83.5,483.5C 81.6439,425.003 95.1439,370.003 124,318.5C 151.332,271.83 186.498,231.997 229.5,199C 240.876,190.977 252.876,183.977 265.5,178C 244.844,178.162 225.511,183.329 207.5,193.5C 206.508,193.672 205.842,193.338 205.5,192.5C 185.246,154.654 165.579,116.654 146.5,78.5C 145.833,73.8333 145.167,69.1667 144.5,64.5C 146.799,57.665 148.966,50.665 151,43.5C 152,41.5 153,39.5 154,37.5C 154.837,35.9926 156.004,35.4926 157.5,36C 193.167,70.3333 228.833,104.667 264.5,139C 278.201,152.043 293.034,163.543 309,173.5C 316.525,161.786 323.025,149.453 328.5,136.5C 335.635,139.631 341.969,143.965 347.5,149.5C 352.194,143.306 356.694,136.972 361,130.5C 365,136.5 369,142.5 373,148.5C 375.647,152.314 378.813,155.647 382.5,158.5C 398.955,151.404 415.788,145.404 433,140.5C 432.312,143.735 431.145,146.902 429.5,150C 430,150.167 430.5,150.333 431,150.5C 439.953,147.44 448.453,143.44 456.5,138.5C 453.79,153.968 449.457,169.302 443.5,184.5C 459.576,185.933 475.576,185.266 491.5,182.5C 492.833,182.833 494.167,183.167 495.5,183.5C 490.474,197.91 484.474,211.91 477.5,225.5C 478.167,225.833 478.833,226.167 479.5,226.5C 554.585,216.825 629.919,210.825 705.5,208.5C 696.228,222.721 687.228,237.054 678.5,251.5 Z"/></g>
<g><path style="opacity:1" fill="#282125" d="M 146.5,78.5 C 165.579,116.654 185.246,154.654 205.5,192.5C 190.969,201.705 177.136,212.038 164,223.5C 161.949,215.58 160.283,207.58 159,199.5C 152.588,159.233 148.421,118.899 146.5,78.5 Z"/></g>
<g><path style="opacity:1" fill="#3e383c" d="M 168.5,20.5 C 212.164,59.9964 255.998,99.3297 300,138.5C 301.666,124.836 303.333,111.169 305,97.5C 305.216,95.6161 305.883,93.9494 307,92.5C 315.391,103.896 324.891,114.396 335.5,124C 339.036,126.366 342.703,128.533 346.5,130.5C 350.747,119.883 354.247,108.883 357,97.5C 357.953,95.4078 359.286,95.0745 361,96.5C 365.84,109.022 372.34,120.522 380.5,131C 404.022,125.415 426.689,117.248 448.5,106.5C 449.167,106.833 449.833,107.167 450.5,107.5C 447.919,110.404 446.252,113.737 445.5,117.5C 450.675,117.728 455.675,116.895 460.5,115C 476.282,108.417 491.615,101.083 506.5,93C 507.793,92.51 509.127,92.3433 510.5,92.5C 500.187,111.121 490.354,130.121 481,149.5C 478.095,155.206 477.095,161.206 478,167.5C 481.933,169.478 486.1,169.978 490.5,169C 503.639,165.452 516.639,161.618 529.5,157.5C 523.967,168.891 517.634,179.891 510.5,190.5C 521.097,190.659 531.764,190.659 542.5,190.5C 539.023,191.323 535.356,191.823 531.5,192C 535.486,192.499 539.486,192.666 543.5,192.5C 528.358,193.981 513.024,194.647 497.5,194.5C 497.5,193.5 497.5,192.5 497.5,191.5C 500.777,191.784 503.943,191.451 507,190.5C 513.5,181.143 519.167,171.476 524,161.5C 511.758,166.58 499.092,170.247 486,172.5C 478.571,173.213 474.738,169.879 474.5,162.5C 476.302,154.929 478.802,147.595 482,140.5C 489.675,126.146 497.009,111.812 504,97.5C 488.795,106.015 472.962,113.181 456.5,119C 452.572,120.325 448.572,120.658 444.5,120C 444,119.5 443.5,119 443,118.5C 442.922,116.343 442.755,114.343 442.5,112.5C 422.589,121.139 402.255,128.806 381.5,135.5C 379.578,134.289 377.745,132.956 376,131.5C 369.543,121.584 363.876,111.251 359,100.5C 356,111.167 353,121.833 350,132.5C 349.275,133.059 348.442,133.392 347.5,133.5C 342.393,131.78 337.726,129.28 333.5,126C 323.888,117.394 315.388,107.894 308,97.5C 305.509,112.085 304.176,126.751 304,141.5C 308.507,144.263 313.34,144.929 318.5,143.5C 319.386,144.325 319.719,145.325 319.5,146.5C 311.97,148.727 305.304,147.227 299.5,142C 255.76,102.483 212.094,62.9831 168.5,23.5C 168.5,22.5 168.5,21.5 168.5,20.5 Z"/></g>
<g><path style="opacity:1" fill="#3e383c" d="M 154.5,220.5 C 153.833,220.833 153.167,221.167 152.5,221.5C 128.722,206.771 104.722,192.271 80.5,178C 65.9439,170.053 50.9439,163.22 35.5,157.5C 35.3347,161.182 35.5014,164.848 36,168.5C 37.4836,173.101 38.6503,177.768 39.5,182.5C 29.7722,182.379 20.1055,183.045 10.5,184.5C 8.58556,185.185 6.58556,185.685 4.5,186C 10.9532,193.742 17.2866,201.575 23.5,209.5C 20.4215,215.991 17.0882,222.325 13.5,228.5C 17.1846,231.673 21.1846,234.34 25.5,236.5C 25.1667,237.167 24.8333,237.833 24.5,238.5C 19.2027,236.185 14.2027,233.352 9.5,230C 12.961,223.578 16.2944,217.078 19.5,210.5C 13.5349,201.549 6.86823,193.216 -0.5,185.5C -0.5,185.167 -0.5,184.833 -0.5,184.5C 8.18962,181.496 17.1896,180.163 26.5,180.5C 29.8984,180.82 33.2317,180.487 36.5,179.5C 36.3764,178.893 36.0431,178.56 35.5,178.5C 33.0335,171.364 32.2002,164.031 33,156.5C 33.3678,155.09 34.2011,154.09 35.5,153.5C 77.5627,172.019 117.229,194.353 154.5,220.5 Z"/></g>
<g><path style="opacity:1" fill="#876e8c" d="M 152.5,221.5 C 154.841,223.829 157.508,225.829 160.5,227.5C 157.912,231.676 155.079,235.676 152,239.5C 150.599,241.146 150.432,242.813 151.5,244.5C 157.326,235.701 163.993,227.534 171.5,220C 182.646,211.259 194.312,203.259 206.5,196C 207.252,195.329 207.586,194.496 207.5,193.5C 225.511,183.329 244.844,178.162 265.5,178C 252.876,183.977 240.876,190.977 229.5,199C 186.498,231.997 151.332,271.83 124,318.5C 95.1439,370.003 81.6439,425.003 83.5,483.5C 85.4783,513.413 92.4783,542.08 104.5,569.5C 100.858,564.903 97.6916,559.903 95,554.5C 92.8811,550.598 91.0477,546.598 89.5,542.5C 81.1246,524.876 74.6246,506.543 70,487.5C 60.4762,436.215 65.8095,386.549 86,338.5C 90.9853,330.197 95.152,321.53 98.5,312.5C 103.024,303.798 107.857,295.131 113,286.5C 113.418,284.212 112.751,282.212 111,280.5C 98.3333,263.833 85.6667,247.167 73,230.5C 66.2057,222.037 59.039,213.87 51.5,206C 38.34,197.754 24.6733,190.588 10.5,184.5C 20.1055,183.045 29.7722,182.379 39.5,182.5C 38.6503,177.768 37.4836,173.101 36,168.5C 35.5014,164.848 35.3347,161.182 35.5,157.5C 50.9439,163.22 65.9439,170.053 80.5,178C 104.722,192.271 128.722,206.771 152.5,221.5 Z"/></g>
<g><path style="opacity:1" fill="#a9a7a9" d="M 35.5,178.5 C 36.0431,178.56 36.3764,178.893 36.5,179.5C 33.2317,180.487 29.8984,180.82 26.5,180.5C 29.5,179.833 32.5,179.167 35.5,178.5 Z"/></g>
<g><path style="opacity:1" fill="#492c4d" d="M 10.5,184.5 C 24.6733,190.588 38.34,197.754 51.5,206C 59.039,213.87 66.2057,222.037 73,230.5C 85.6667,247.167 98.3333,263.833 111,280.5C 112.751,282.212 113.418,284.212 113,286.5C 107.857,295.131 103.024,303.798 98.5,312.5C 95.1807,317.797 91.8474,323.131 88.5,328.5C 76.5277,320.027 66.3611,309.694 58,297.5C 50.2192,284.266 42.7192,270.933 35.5,257.5C 33.5541,251.934 31.8874,246.268 30.5,240.5C 29.4297,238.46 27.7631,237.126 25.5,236.5C 21.1846,234.34 17.1846,231.673 13.5,228.5C 17.0882,222.325 20.4215,215.991 23.5,209.5C 17.2866,201.575 10.9532,193.742 4.5,186C 6.58556,185.685 8.58556,185.185 10.5,184.5 Z"/></g>
<g><path style="opacity:1" fill="#3d393b" d="M 724.5,193.5 C 725.952,194.302 727.618,194.802 729.5,195C 727.866,195.494 726.199,195.66 724.5,195.5C 664.194,193.028 603.861,192.028 543.5,192.5C 539.486,192.666 535.486,192.499 531.5,192C 535.356,191.823 539.023,191.323 542.5,190.5C 603.214,188.767 663.881,189.767 724.5,193.5 Z"/></g>
<g><path style="opacity:1" fill="#393337" d="M 724.5,193.5 C 731.175,193.334 737.842,193.5 744.5,194C 745.308,194.308 745.975,194.808 746.5,195.5C 745.018,197.483 743.351,199.316 741.5,201C 698.794,238.041 655.794,274.708 612.5,311C 596.9,323.936 580.733,336.102 564,347.5C 563.968,351.839 564.468,356.173 565.5,360.5C 570.632,361.121 575.632,361.787 580.5,362.5C 576.671,361.931 573.337,362.598 570.5,364.5C 568.833,364.5 567.167,364.5 565.5,364.5C 565.662,379.222 564.829,393.889 563,408.5C 562.23,409.598 561.397,409.598 560.5,408.5C 562.221,393.543 562.721,378.543 562,363.5C 560.261,345.396 557.761,327.396 554.5,309.5C 554.64,307.97 555.307,306.97 556.5,306.5C 558.682,319.265 561.182,331.932 564,344.5C 601.185,316.815 637.018,287.482 671.5,256.5C 674.009,255.079 676.343,253.412 678.5,251.5C 699.628,233.543 720.628,215.376 741.5,197C 735.652,196.827 729.985,196.327 724.5,195.5C 726.199,195.66 727.866,195.494 729.5,195C 727.618,194.802 725.952,194.302 724.5,193.5 Z"/></g>
<g><path style="opacity:1" fill="#373235" d="M 25.5,236.5 C 27.7631,237.126 29.4297,238.46 30.5,240.5C 31.8874,246.268 33.5541,251.934 35.5,257.5C 44.7566,289.496 59.5899,318.496 80,344.5C 82.6558,339.027 85.4891,333.694 88.5,328.5C 91.8474,323.131 95.1807,317.797 98.5,312.5C 95.152,321.53 90.9853,330.197 86,338.5C 65.8095,386.549 60.4762,436.215 70,487.5C 74.6246,506.543 81.1246,524.876 89.5,542.5C 85.9517,539.094 83.1184,535.094 81,530.5C 76.1493,519.13 72.1493,507.464 69,495.5C 59.0285,510.398 52.3618,526.732 49,544.5C 44.6782,559.706 43.8449,575.04 46.5,590.5C 50.6781,605.667 59.0114,618.167 71.5,628C 78.9049,633.788 86.7382,638.955 95,643.5C 100.868,657.245 109.201,669.245 120,679.5C 121.302,676.625 122.135,673.625 122.5,670.5C 123.552,670.351 124.552,670.517 125.5,671C 129.94,677.809 136.106,682.309 144,684.5C 145.648,677.082 147.482,669.748 149.5,662.5C 153.629,666.288 158.296,669.288 163.5,671.5C 164.086,671.291 164.586,670.957 165,670.5C 165.5,663.174 165.666,655.841 165.5,648.5C 156.411,651.438 147.077,653.104 137.5,653.5C 135.933,653.523 134.6,653.023 133.5,652C 141.035,650.429 148.702,649.096 156.5,648C 159.244,647.197 161.911,646.197 164.5,645C 153.891,635.396 144.391,624.896 136,613.5C 135.251,612.365 135.417,611.365 136.5,610.5C 152.779,631.28 171.779,649.113 193.5,664C 221.218,680.415 251.218,689.415 283.5,691C 299.833,691.333 316.167,691.667 332.5,692C 337.609,694.11 341.443,697.61 344,702.5C 351.421,722.016 361.421,740.016 374,756.5C 384.182,769.682 397.349,774.516 413.5,771C 439.731,760.93 460.398,744.096 475.5,720.5C 485.205,702.694 491.371,683.694 494,663.5C 496.347,650.343 495.68,637.343 492,624.5C 484.02,608.856 472.853,596.022 458.5,586C 458.833,585.5 459.167,585 459.5,584.5C 463.873,586.681 467.873,589.347 471.5,592.5C 476.373,597.194 481.04,602.194 485.5,607.5C 496.727,596.048 505.727,583.048 512.5,568.5C 527.512,541.969 537.678,513.636 543,483.5C 543.77,482.402 544.603,482.402 545.5,483.5C 544.719,493.573 542.719,503.407 539.5,513C 539.833,513.5 540.167,514 540.5,514.5C 587.049,504.047 630.049,485.714 669.5,459.5C 675.85,455.488 682.017,451.154 688,446.5C 694.066,448.911 699.899,451.744 705.5,455C 710.399,456.691 715.399,457.857 720.5,458.5C 720.001,449.513 718.668,440.68 716.5,432C 726.833,425 737.167,418 747.5,411C 742.426,408.475 737.093,406.642 731.5,405.5C 724.413,402.694 717.413,399.694 710.5,396.5C 711,396.167 711.5,395.833 712,395.5C 714.158,396.451 716.325,396.951 718.5,397C 723.354,391.647 728.021,386.147 732.5,380.5C 718.652,378.43 704.985,376.097 691.5,373.5C 692.338,373.158 692.672,372.492 692.5,371.5C 707.18,373.407 721.847,375.407 736.5,377.5C 736.649,378.552 736.483,379.552 736,380.5C 731.047,386.241 726.214,392.074 721.5,398C 732.233,401.744 742.9,405.577 753.5,409.5C 753.5,410.167 753.5,410.833 753.5,411.5C 742.468,418.105 731.635,425.105 721,432.5C 722.48,442.066 723.313,451.733 723.5,461.5C 711.006,460.095 699.339,456.095 688.5,449.5C 668.305,465.772 646.305,479.272 622.5,490C 595.583,502.528 567.583,511.861 538.5,518C 528.846,544.14 516.68,568.973 502,592.5C 497.544,598.625 492.711,604.458 487.5,610C 492.409,615.986 495.575,622.82 497,630.5C 502.45,681.74 485.617,723.907 446.5,757C 435.179,765.327 422.846,771.494 409.5,775.5C 405.167,775.5 400.833,775.5 396.5,775.5C 391.313,773.573 386.313,771.073 381.5,768C 370.519,757.522 361.353,745.689 354,732.5C 348.453,722.074 343.453,711.408 339,700.5C 334.443,695.536 328.777,693.536 322,694.5C 319.167,694.833 316.333,695.167 313.5,695.5C 309.831,705.341 306.664,715.341 304,725.5C 303.282,726.451 302.449,726.617 301.5,726C 300.789,724.745 299.956,723.579 299,722.5C 298.126,726.535 297.126,730.535 296,734.5C 295.586,734.957 295.086,735.291 294.5,735.5C 277.573,729.454 263.073,719.788 251,706.5C 245.469,699.936 240.302,693.102 235.5,686C 210.565,678.621 188.399,666.454 169,649.5C 168.667,656.833 168.333,664.167 168,671.5C 167.883,674.629 166.383,675.795 163.5,675C 158.919,673.129 154.752,670.629 151,667.5C 149.871,674.119 148.371,680.619 146.5,687C 137.793,686.228 130.627,682.394 125,675.5C 124.014,677.778 123.18,680.111 122.5,682.5C 121.635,683.583 120.635,683.749 119.5,683C 114.667,679.5 110.5,675.333 107,670.5C 101.662,662.494 96.8283,654.161 92.5,645.5C 77.3126,636.98 64.1459,625.98 53,612.5C 43.242,598.3 39.5753,582.633 42,565.5C 44.9279,538.05 53.4279,512.55 67.5,489C 58.4324,441.175 62.0991,394.342 78.5,348.5C 58.7413,323.326 43.908,295.326 34,264.5C 31.356,256.591 29.0226,248.591 27,240.5C 26.0053,239.934 25.172,239.267 24.5,238.5C 24.8333,237.833 25.1667,237.167 25.5,236.5 Z"/></g>
<g><path style="opacity:1" fill="#282125" d="M 671.5,256.5 C 637.018,287.482 601.185,316.815 564,344.5C 561.182,331.932 558.682,319.265 556.5,306.5C 560.32,303.53 564.32,300.696 568.5,298C 588.566,287.052 608.566,277.052 628.5,268C 641.368,264.231 653.535,260.398 665,256.5C 667.266,256.534 669.433,256.534 671.5,256.5 Z"/></g>
<g><path style="opacity:1" fill="#282125" d="M 35.5,257.5 C 42.7192,270.933 50.2192,284.266 58,297.5C 66.3611,309.694 76.5277,320.027 88.5,328.5C 85.4891,333.694 82.6558,339.027 80,344.5C 59.5899,318.496 44.7566,289.496 35.5,257.5 Z"/></g>
<g><path style="opacity:1" fill="#292125" d="M 233.5,258.5 C 234.5,258.5 235.5,258.5 236.5,258.5C 253.782,305.832 271.782,352.999 290.5,400C 288.723,402.152 287.223,401.985 286,399.5C 246.228,415.448 218.561,403.448 203,363.5C 198.227,348.078 198.56,332.745 204,317.5C 208.016,309.469 212.016,301.469 216,293.5C 221.867,285.082 228.2,277.082 235,269.5C 235.256,265.754 234.756,262.087 233.5,258.5 Z"/></g>
<g><path style="opacity:1" fill="#ac4e54" d="M 242.5,284.5 C 216.471,307.697 205.137,336.03 208.5,369.5C 201.057,352.517 200.557,335.184 207,317.5C 214.002,300.151 224.002,284.818 237,271.5C 239.38,275.594 241.213,279.927 242.5,284.5 Z"/></g>
<g><path style="opacity:1" fill="#e87762" d="M 242.5,284.5 C 248.43,298.771 254.097,313.271 259.5,328C 255.689,336.436 252.856,345.269 251,354.5C 250.361,359.98 251.028,365.313 253,370.5C 258.019,374.695 262.019,373.695 265,367.5C 266.667,363.5 268.333,359.5 270,355.5C 275.065,368.861 280.232,382.195 285.5,395.5C 251.162,412.388 225.496,403.721 208.5,369.5C 205.137,336.03 216.471,307.697 242.5,284.5 Z"/></g>
<g><path style="opacity:1" fill="#292225" d="M 479.5,321.5 C 481.465,321.948 481.798,322.948 480.5,324.5C 477.5,326.333 474.5,328.167 471.5,330C 474.153,335.106 475.653,340.606 476,346.5C 480.891,375.606 474.224,401.606 456,424.5C 429.456,449.18 401.289,451.013 371.5,430C 364.239,424.972 358.739,418.472 355,410.5C 352.963,413.639 350.463,414.472 347.5,413C 364.961,397.874 383.295,383.874 402.5,371C 427.862,353.7 453.529,337.2 479.5,321.5 Z"/></g>
<g><path style="opacity:1" fill="#ab4e54" d="M 425.5,439.5 C 445.45,424.787 456.783,404.954 459.5,380C 459.5,373.333 459.5,366.667 459.5,360C 458.561,353.525 456.894,347.025 454.5,340.5C 459.221,336.471 464.554,333.471 470.5,331.5C 476.615,354.466 475.782,377.132 468,399.5C 462.094,414.063 452.594,425.563 439.5,434C 434.886,436.153 430.219,437.986 425.5,439.5 Z"/></g>
<g><path style="opacity:1" fill="#f4f3f4" d="M 260.5,333.5 C 265.685,339.276 266.519,345.609 263,352.5C 261.921,354.394 260.587,354.727 259,353.5C 258.623,349.981 258.123,346.481 257.5,343C 258.206,339.715 259.206,336.548 260.5,333.5 Z"/></g>
<g><path style="opacity:1" fill="#e87862" d="M 454.5,340.5 C 456.894,347.025 458.561,353.525 459.5,360C 459.5,366.667 459.5,373.333 459.5,380C 456.783,404.954 445.45,424.787 425.5,439.5C 411.673,443.17 398.339,441.67 385.5,435C 373.189,429.516 363.856,420.849 357.5,409C 368.677,399.337 380.343,390.17 392.5,381.5C 393.331,387.807 393.831,394.141 394,400.5C 394.511,402.878 395.178,405.212 396,407.5C 399.283,412.809 402.616,412.809 406,407.5C 410.008,394.758 411.674,381.758 411,368.5C 425.132,358.523 439.632,349.189 454.5,340.5 Z"/></g>
<g><path style="opacity:1" fill="#0d6267" d="M 254.5,350.5 C 258.401,359.832 262.568,359.832 267,350.5C 267.297,359.298 263.963,366.298 257,371.5C 255.748,369.999 254.748,368.332 254,366.5C 253.391,361.139 253.558,355.805 254.5,350.5 Z"/></g>
<g><path style="opacity:1" fill="#876e8d" d="M 570.5,364.5 C 610.847,367.19 651.18,370.19 691.5,373.5C 704.985,376.097 718.652,378.43 732.5,380.5C 728.021,386.147 723.354,391.647 718.5,397C 716.325,396.951 714.158,396.451 712,395.5C 711.5,395.833 711,396.167 710.5,396.5C 717.413,399.694 724.413,402.694 731.5,405.5C 707.49,405.444 683.49,405.277 659.5,405C 629.32,413.073 598.653,415.739 567.5,413C 564.385,412.459 562.052,410.959 560.5,408.5C 561.397,409.598 562.23,409.598 563,408.5C 564.829,393.889 565.662,379.222 565.5,364.5C 567.167,364.5 568.833,364.5 570.5,364.5 Z"/></g>
<g><path style="opacity:1" fill="#3d383b" d="M 580.5,362.5 C 617.926,364.619 655.259,367.619 692.5,371.5C 692.672,372.492 692.338,373.158 691.5,373.5C 651.18,370.19 610.847,367.19 570.5,364.5C 573.337,362.598 576.671,361.931 580.5,362.5 Z"/></g>
<g><path style="opacity:1" fill="#f7f6f7" d="M 407.5,370.5 C 410.287,378.385 408.287,384.885 401.5,390C 399.112,390.865 397.612,390.032 397,387.5C 396.333,384.5 396.333,381.5 397,378.5C 400.658,375.934 404.158,373.268 407.5,370.5 Z"/></g>
<g><path style="opacity:1" fill="#0d6267" d="M 406.5,387.5 C 407.248,394.288 406.081,400.954 403,407.5C 401.667,408.833 400.333,408.833 399,407.5C 395.898,402.275 394.898,396.942 396,391.5C 397.101,393.394 398.434,394.061 400,393.5C 403.214,392.502 405.381,390.502 406.5,387.5 Z"/></g>
<g><path style="opacity:1" fill="#2f282c" d="M 156.5,342.5 C 157.496,342.414 158.329,342.748 159,343.5C 166.721,369.831 180.888,391.997 201.5,410C 236.453,439.139 276.453,458.139 321.5,467C 354.609,473.915 387.942,475.249 421.5,471C 436.112,468.02 450.112,463.353 463.5,457C 468.118,454.05 472.452,450.716 476.5,447C 477.635,446.251 478.635,446.417 479.5,447.5C 475.275,451.526 470.775,455.192 466,458.5C 446.601,502.815 413.101,529.982 365.5,540C 311.132,547.195 261.465,535.195 216.5,504C 169.001,468.284 150.668,420.95 161.5,362C 159.726,355.514 158.059,349.014 156.5,342.5 Z"/></g>
<g><path style="opacity:1" fill="#c9cacb" d="M 292.5,476.5 C 274.375,471.403 257.208,464.07 241,454.5C 240.617,455.056 240.117,455.389 239.5,455.5C 240.689,450.746 242.189,446.079 244,441.5C 260.368,450.598 277.534,457.931 295.5,463.5C 295.339,467.828 294.339,472.162 292.5,476.5 Z"/></g>
<g><path style="opacity:1" fill="#fdfdfd" d="M 237.5,452.5 C 233.12,470.021 228.12,487.354 222.5,504.5C 205.855,493.689 192.022,480.022 181,463.5C 183.538,448.678 187.038,434.011 191.5,419.5C 192.423,418.697 193.423,418.53 194.5,419C 207.874,431.558 222.208,442.725 237.5,452.5 Z"/></g>
<g><path style="opacity:1" fill="#c9cacb" d="M 237.5,452.5 C 222.208,442.725 207.874,431.558 194.5,419C 193.423,418.53 192.423,418.697 191.5,419.5C 192.356,415.429 193.523,411.429 195,407.5C 209.104,420.604 224.604,431.771 241.5,441C 240.075,444.9 238.742,448.733 237.5,452.5 Z"/></g>
<g><path style="opacity:1" fill="#fcfcfc" d="M 162.5,379.5 C 170.524,392.207 179.524,404.207 189.5,415.5C 186.137,429.95 182.304,444.283 178,458.5C 164.94,433.699 159.773,407.366 162.5,379.5 Z"/></g>
<g><path style="opacity:1" fill="#c9c9ca" d="M 189.5,415.5 C 179.524,404.207 170.524,392.207 162.5,379.5C 162.765,375.147 163.265,370.813 164,366.5C 171.018,380.854 180.351,393.521 192,404.5C 192.073,408.43 191.24,412.097 189.5,415.5 Z"/></g>
<g><path style="opacity:1" fill="#fdfdfd" d="M 292.5,476.5 C 287.492,494.688 281.992,512.688 276,530.5C 258.419,524.376 241.753,516.376 226,506.5C 230.015,489.443 234.515,472.443 239.5,455.5C 240.117,455.389 240.617,455.056 241,454.5C 257.208,464.07 274.375,471.403 292.5,476.5 Z"/></g>
<g><path style="opacity:1" fill="#fbfbfb" d="M 415.5,477.5 C 420.669,477.001 425.336,475.334 429.5,472.5C 440.471,469.766 450.971,465.766 461,460.5C 459.143,467.558 456.143,474.225 452,480.5C 439.79,498.213 424.29,512.213 405.5,522.5C 405.167,521.833 404.833,521.167 404.5,520.5C 408.019,506.09 411.686,491.756 415.5,477.5 Z"/></g>
<g><path style="opacity:1" fill="#282125" d="M 669.5,459.5 C 630.049,485.714 587.049,504.047 540.5,514.5C 540.167,514 539.833,513.5 539.5,513C 542.719,503.407 544.719,493.573 545.5,483.5C 552.94,483.488 560.44,483.488 568,483.5C 574,482.833 580,482.167 586,481.5C 587.268,481.616 588.602,481.949 590,482.5C 617.367,477.866 643.867,470.199 669.5,459.5 Z"/></g>
<g><path style="opacity:1" fill="#cacbcc" d="M 353.5,488.5 C 346.004,487.441 338.171,486.108 330,484.5C 318.42,483.573 306.92,481.239 295.5,477.5C 296.344,473.126 297.344,468.793 298.5,464.5C 317.486,469.964 336.819,473.63 356.5,475.5C 356.26,480.12 355.26,484.453 353.5,488.5 Z"/></g>
<g><path style="opacity:1" fill="#c6c6c7" d="M 429.5,472.5 C 425.336,475.334 420.669,477.001 415.5,477.5C 415.5,476.5 415.5,475.5 415.5,474.5C 420.227,474.221 424.893,473.554 429.5,472.5 Z"/></g>
<g><path style="opacity:1" fill="#c9cacb" d="M 411.5,480.5 C 411.44,479.957 411.107,479.624 410.5,479.5C 392.555,484.713 374.555,487.713 356.5,488.5C 357.971,484.282 358.971,479.949 359.5,475.5C 377.496,476.603 395.496,476.77 413.5,476C 412.901,477.622 412.234,479.122 411.5,480.5 Z"/></g>
<g><path style="opacity:1" fill="#fdfdfd" d="M 295.5,477.5 C 306.92,481.239 318.42,483.573 330,484.5C 338.171,486.108 346.004,487.441 353.5,488.5C 349.704,505.481 346.037,522.481 342.5,539.5C 321.331,540.604 300.664,537.937 280.5,531.5C 279.386,530.277 279.219,528.944 280,527.5C 284.987,510.685 290.154,494.018 295.5,477.5 Z"/></g>
<g><path style="opacity:1" fill="#fdfdfd" d="M 411.5,480.5 C 408.319,495.224 404.819,509.891 401,524.5C 383.372,534.115 364.539,538.782 344.5,538.5C 349.131,521.977 353.131,505.31 356.5,488.5C 374.555,487.713 392.555,484.713 410.5,479.5C 411.107,479.624 411.44,479.957 411.5,480.5 Z"/></g>
<g><path style="opacity:1" fill="#282125" d="M 83.5,483.5 C 119.135,541.631 168.469,583.798 231.5,610C 272.907,623.679 313.407,629.513 353,627.5C 359.453,645.854 366.12,664.188 373,682.5C 376.946,693.058 381.946,703.058 388,712.5C 390.967,707.868 394.301,703.535 398,699.5C 399.225,699.862 400.391,700.362 401.5,701C 406.222,705.598 411.055,710.098 416,714.5C 421.745,709.69 427.245,704.523 432.5,699C 433.448,698.517 434.448,698.351 435.5,698.5C 438.59,705.019 441.424,711.686 444,718.5C 448.999,715.222 454.499,713.222 460.5,712.5C 459.491,717.796 459.324,723.129 460,728.5C 465.305,726.011 470.471,723.344 475.5,720.5C 460.398,744.096 439.731,760.93 413.5,771C 397.349,774.516 384.182,769.682 374,756.5C 361.421,740.016 351.421,722.016 344,702.5C 341.443,697.61 337.609,694.11 332.5,692C 316.167,691.667 299.833,691.333 283.5,691C 251.218,689.415 221.218,680.415 193.5,664C 171.779,649.113 152.779,631.28 136.5,610.5C 135.417,611.365 135.251,612.365 136,613.5C 144.391,624.896 153.891,635.396 164.5,645C 161.911,646.197 159.244,647.197 156.5,648C 148.702,649.096 141.035,650.429 133.5,652C 134.6,653.023 135.933,653.523 137.5,653.5C 147.077,653.104 156.411,651.438 165.5,648.5C 165.666,655.841 165.5,663.174 165,670.5C 164.586,670.957 164.086,671.291 163.5,671.5C 158.296,669.288 153.629,666.288 149.5,662.5C 147.482,669.748 145.648,677.082 144,684.5C 136.106,682.309 129.94,677.809 125.5,671C 124.552,670.517 123.552,670.351 122.5,670.5C 122.135,673.625 121.302,676.625 120,679.5C 109.201,669.245 100.868,657.245 95,643.5C 86.7382,638.955 78.9049,633.788 71.5,628C 59.0114,618.167 50.6781,605.667 46.5,590.5C 61.1967,601.736 77.53,607.236 95.5,607C 104.523,605.487 112.523,601.821 119.5,596C 113.558,587.608 108.558,578.775 104.5,569.5C 92.4783,542.08 85.4783,513.413 83.5,483.5 Z"/></g>
<g><path style="opacity:1" fill="#492c4d" d="M 89.5,542.5 C 91.0477,546.598 92.8811,550.598 95,554.5C 97.6916,559.903 100.858,564.903 104.5,569.5C 108.558,578.775 113.558,587.608 119.5,596C 112.523,601.821 104.523,605.487 95.5,607C 77.53,607.236 61.1967,601.736 46.5,590.5C 43.8449,575.04 44.6782,559.706 49,544.5C 52.3618,526.732 59.0285,510.398 69,495.5C 72.1493,507.464 76.1493,519.13 81,530.5C 83.1184,535.094 85.9517,539.094 89.5,542.5 Z"/></g>
<g><path style="opacity:1" fill="#282125" d="M 512.5,568.5 C 505.727,583.048 496.727,596.048 485.5,607.5C 481.04,602.194 476.373,597.194 471.5,592.5C 473.308,592.509 474.975,592.009 476.5,591C 487.987,583.384 499.987,575.884 512.5,568.5 Z"/></g>
<g><path style="opacity:1" fill="#272124" d="M 239.5,687.5 C 239.56,686.957 239.893,686.624 240.5,686.5C 263.435,692.412 286.768,695.245 310.5,695C 307.592,703.459 304.759,711.959 302,720.5C 300.416,719.139 298.582,718.472 296.5,718.5C 295.671,722.486 294.837,726.486 294,730.5C 293.586,730.957 293.086,731.291 292.5,731.5C 281.712,726.942 271.712,721.109 262.5,714C 254.222,705.565 246.555,696.732 239.5,687.5 Z"/></g>
</svg>
