<?xml version="1.0" encoding="UTF-8"?>
<!DOCTYPE svg PUBLIC "-//W3C//DTD SVG 1.1//EN" "http://www.w3.org/Graphics/SVG/1.1/DTD/svg11.dtd">
<svg xmlns="http://www.w3.org/2000/svg" version="1.1" width="200px" height="200px" style="shape-rendering:geometricPrecision; text-rendering:geometricPrecision; image-rendering:optimizeQuality; fill-rule:evenodd; clip-rule:evenodd" xmlns:xlink="http://www.w3.org/1999/xlink">
<g><path style="opacity:0.923" fill="#000000" d="M 19.5,28.5 C 64.5012,28.3333 109.501,28.5 154.5,29C 161.739,28.5827 166.572,31.7494 169,38.5C 169.333,66.1667 169.667,93.8333 170,121.5C 177.667,135.167 185.333,148.833 193,162.5C 193.667,164.5 193.667,166.5 193,168.5C 166.906,169.661 140.739,169.828 114.5,169C 113.409,166.936 113.242,164.769 114,162.5C 116.421,158.66 118.588,154.66 120.5,150.5C 84.1114,149.981 47.778,149.148 11.5,148C 8.86471,146.039 7.03138,143.539 6,140.5C 5.33333,106.5 5.33333,72.5 6,38.5C 8.68023,32.5885 13.1802,29.2552 19.5,28.5 Z M 19.5,37.5 C 65.8933,37.015 112.227,37.515 158.5,39C 159.893,40.1711 160.727,41.6711 161,43.5C 161.667,64.1667 161.667,84.8333 161,105.5C 159.877,102.751 158.377,100.251 156.5,98C 154.101,97.289 151.768,97.4557 149.5,98.5C 143.985,94.5748 138.652,90.4081 133.5,86C 130.697,85.245 128.03,85.5783 125.5,87C 117.167,94.1667 108.833,101.333 100.5,108.5C 87.9779,96.1449 75.9779,83.3116 64.5,70C 62.5,69.3333 60.5,69.3333 58.5,70C 43.3693,82.7953 28.536,95.962 14,109.5C 13.3333,87.5 13.3333,65.5 14,43.5C 14.6831,40.3212 16.5164,38.3212 19.5,37.5 Z M 100.5,62.5 C 108.486,61.998 110.486,65.1647 106.5,72C 98.424,72.8047 96.424,69.638 100.5,62.5 Z M 60.5,80.5 C 72.9506,92.7883 84.9506,105.622 96.5,119C 98.5,119.667 100.5,119.667 102.5,119C 111.687,110.979 121.02,103.145 130.5,95.5C 135.486,99.1549 140.153,103.155 144.5,107.5C 138.5,118.5 132.5,129.5 126.5,140.5C 108.667,140.833 90.8333,141.167 73,141.5C 54.104,141.648 35.2707,141.148 16.5,140C 15.1068,138.829 14.2735,137.329 14,135.5C 13.3333,130.833 13.3333,126.167 14,121.5C 29.6936,107.968 45.1936,94.3014 60.5,80.5 Z M 156.5,117.5 C 154.5,117.5 152.5,117.5 150.5,117.5C 152.5,109.5 154.5,109.5 156.5,117.5 Z M 149.5,118.5 C 149.334,127.839 149.5,137.173 150,146.5C 152.333,147.833 154.667,147.833 157,146.5C 157.5,137.173 157.666,127.839 157.5,118.5C 165.473,132.437 173.473,146.437 181.5,160.5C 162.833,161.833 144.167,161.833 125.5,160.5C 133.527,146.437 141.527,132.437 149.5,118.5 Z"/></g>
<g><path style="opacity:0.878" fill="#000000" d="M 97.5,53.5 C 113.995,52.1611 120.162,59.4944 116,75.5C 111.382,81.0527 105.549,82.886 98.5,81C 90.2856,77.068 87.4523,70.568 90,61.5C 92.0282,58.3078 94.5282,55.6411 97.5,53.5 Z M 100.5,62.5 C 96.424,69.638 98.424,72.8047 106.5,72C 110.486,65.1647 108.486,61.998 100.5,62.5 Z"/></g>
<g><path style="opacity:0.959" fill="#000000" d="M 150.5,117.5 C 152.5,117.5 154.5,117.5 156.5,117.5C 156.5,118.167 156.833,118.5 157.5,118.5C 157.666,127.839 157.5,137.173 157,146.5C 154.667,147.833 152.333,147.833 150,146.5C 149.5,137.173 149.334,127.839 149.5,118.5C 150.167,118.5 150.5,118.167 150.5,117.5 Z"/></g>
<g><path style="opacity:0.892" fill="#000000" d="M 150.5,149.5 C 158.486,148.998 160.486,152.165 156.5,159C 148.424,159.805 146.424,156.638 150.5,149.5 Z"/></g>
</svg>
